<?xml version="1.0" standalone="no"?>
<!DOCTYPE svg PUBLIC "-//W3C//DTD SVG 20010904//EN"
 "http://www.w3.org/TR/2001/REC-SVG-20010904/DTD/svg10.dtd">
<svg version="1.0" xmlns="http://www.w3.org/2000/svg"
 width="512.000000pt" height="512.000000pt" viewBox="0 0 512.000000 512.000000"
 preserveAspectRatio="xMidYMid meet">
<metadata>
Created by potrace 1.11, written by Peter Selinger 2001-2013
</metadata>
<g transform="translate(0.000000,512.000000) scale(0.100000,-0.100000)"
fill="#000000" stroke="none">
<path d="M1617 4743 c-1 -1 -47 -11 -102 -22 -152 -32 -368 -117 -426 -167 -8
-8 -26 -14 -39 -14 -13 0 -20 -3 -17 -6 8 -8 -65 -64 -74 -58 -4 2 -24 -17
-44 -42 -21 -25 -48 -50 -62 -55 -13 -5 -26 -17 -30 -26 -7 -21 -44 -68 -55
-71 -15 -4 -45 -37 -41 -45 5 -9 -33 -64 -64 -93 -13 -12 -20 -23 -17 -27 3
-3 -4 -24 -16 -47 -12 -23 -24 -39 -28 -36 -3 4 -15 -26 -27 -66 -11 -40 -25
-72 -31 -71 -5 1 -10 -6 -11 -15 -7 -81 -24 -153 -34 -146 -5 3 -9 -5 -9 -18
-1 -13 -3 -52 -6 -88 -13 -156 -9 -295 9 -372 10 -42 20 -99 22 -126 3 -49 91
-248 150 -341 14 -24 21 -39 13 -35 -21 13 19 -44 91 -130 36 -43 66 -84 66
-90 0 -18 -53 -78 -64 -72 -7 5 -13 -5 -25 -44 -5 -17 -54 -79 -58 -74 -5 4
-19 -24 -23 -46 -2 -13 -39 -75 -51 -88 -8 -7 -14 -16 -15 -20 -3 -26 -10 -48
-30 -89 -12 -26 -24 -56 -25 -68 -1 -11 -10 -47 -19 -80 -9 -33 -18 -78 -21
-100 -3 -22 -7 -50 -10 -63 -6 -31 -6 -255 1 -312 19 -162 84 -354 161 -482
20 -32 33 -62 30 -66 -3 -5 5 -18 17 -29 12 -12 77 -76 144 -144 130 -132 170
-169 182 -169 4 0 16 -9 26 -20 10 -11 20 -18 23 -15 3 2 32 -11 66 -30 205
-114 484 -170 721 -144 61 6 122 12 138 12 15 -1 27 3 27 6 0 11 100 32 112
24 7 -3 8 -1 4 5 -4 7 9 15 36 22 48 13 214 94 241 118 9 8 20 13 23 9 3 -3
14 2 23 11 35 33 76 67 83 67 3 0 90 81 191 179 102 98 191 183 199 187 7 5 9
9 5 9 -12 0 81 90 93 90 6 0 9 4 7 8 -1 4 23 30 53 57 30 27 55 51 55 54 0 3
5 5 12 5 7 -1 11 2 10 7 -1 4 177 185 395 401 581 574 908 901 908 908 0 3
-422 427 -937 941 -630 629 -961 952 -1008 984 -38 27 -83 59 -100 72 -43 33
-50 38 -60 40 -6 1 -48 19 -94 39 -166 73 -316 104 -514 107 -81 2 -149 2
-150 0z m318 -344 c39 -6 80 -17 92 -25 12 -8 32 -14 43 -14 38 0 214 -91 275
-143 33 -28 422 -412 864 -854 l804 -803 -43 -47 c-40 -44 -650 -652 -650
-647 0 1 -19 -17 -43 -40 -24 -22 -43 -43 -42 -46 0 -3 -3 -5 -6 -5 -3 0 -25
-22 -50 -50 -85 -94 -162 -165 -172 -158 -6 4 -7 1 -2 -6 8 -14 -41 -71 -62
-71 -7 0 -13 -7 -13 -16 0 -8 -4 -12 -10 -9 -5 3 -10 0 -10 -7 0 -17 -378
-388 -395 -388 -3 0 -20 -16 -37 -36 -17 -19 -37 -33 -44 -30 -9 3 -14 -2 -14
-14 0 -11 -3 -20 -7 -20 -5 0 -26 -17 -49 -38 -48 -45 -138 -102 -160 -102 -8
0 -12 -5 -9 -10 3 -6 1 -11 -4 -11 -17 -2 -24 -5 -71 -27 -24 -11 -48 -18 -52
-16 -4 3 -8 1 -8 -4 0 -5 -6 -9 -12 -10 -7 -1 -38 -8 -68 -17 -159 -46 -424
-34 -546 26 -24 11 -46 20 -49 20 -3 -1 -36 14 -73 33 -175 88 -319 240 -403
422 -22 49 -44 96 -49 106 -9 15 -37 161 -40 203 -3 48 1 194 6 216 3 13 6 35
8 49 7 58 19 99 27 94 5 -3 10 5 11 18 0 13 2 28 3 33 2 6 3 17 4 26 0 9 14
36 31 60 16 24 30 50 30 57 0 17 45 84 52 77 2 -3 11 7 18 23 21 41 60 93 68
89 4 -2 15 4 25 15 9 10 14 18 10 18 -4 0 8 16 27 35 18 19 36 33 39 31 3 -1
14 5 24 16 9 10 14 18 10 18 -4 0 8 16 27 35 18 19 36 33 39 31 9 -4 36 28 39
48 2 12 -47 70 -150 174 -84 87 -170 182 -189 212 -57 88 -94 154 -81 146 18
-11 15 -2 -24 75 -44 88 -59 172 -58 314 2 165 13 251 35 265 4 3 10 21 12 40
6 45 27 100 37 100 7 0 23 33 25 51 1 17 41 79 51 79 11 0 24 20 30 47 3 18
153 167 160 160 7 -7 44 24 39 34 -3 3 17 17 43 30 26 13 50 28 53 32 11 16
130 66 203 87 139 39 264 44 431 19z"/>
</g>
</svg>
